<svg width="226" height="74" viewBox="0 0 226 74" fill="none" xmlns="http://www.w3.org/2000/svg">
<g clip-path="url(#clip0_668_3085)">
<path d="M196.335 26.5C196.335 18.119 202.714 12.2123 211.167 12.2123C219.62 12.2123 226 18.119 226 26.5C226 34.7214 219.62 40.7876 211.167 40.7876C202.714 40.7876 196.335 34.8012 196.335 26.5ZM217.627 26.5C217.627 22.5889 215.155 19.7154 211.247 19.7154C207.339 19.7154 204.867 22.5889 204.867 26.5C204.867 30.4111 207.339 33.2846 211.247 33.2846C215.155 33.2846 217.627 30.491 217.627 26.5ZM190.752 19.875C191.311 20.9925 191.55 22.1898 191.55 23.4669C191.55 26.5 189.955 29.2937 187.403 31.4488C190.912 33.125 192.985 37.1958 192.985 41.0271C192.985 48.2108 187.164 53 178.312 53C169.46 53 163.639 48.2907 163.639 41.0271C163.639 37.116 165.712 33.2048 169.221 31.4488C166.589 29.2937 165.074 26.5 165.074 23.4669C165.074 17.1611 170.018 12.5316 177.833 12.5316C182.459 12.5316 183.814 13.3298 186.446 13.3298C188.2 13.3298 189.397 13.0904 191.55 11.9729C192.267 11.5738 192.826 11.4142 193.304 11.4142C194.341 11.4142 194.899 12.4518 194.899 13.7289C194.979 16.5226 193.703 18.8373 190.752 19.875ZM184.771 40.7876C184.771 37.5949 182.299 35.3599 178.392 35.3599C174.484 35.3599 172.012 37.5151 172.012 40.7876C172.012 43.8208 174.723 46.2154 178.392 46.2154C181.98 46.2154 184.771 43.8208 184.771 40.7876ZM173.208 23.9458C173.208 26.6596 175.521 28.8148 178.312 28.8148C181.183 28.8148 183.416 26.6596 183.416 23.9458C183.416 21.0723 181.342 19.0768 178.312 19.0768C175.361 19.0768 173.208 20.9925 173.208 23.9458ZM159.811 27.0587V37.0361C159.811 38.9518 159.093 39.75 157.02 39.75H154.229C152.155 39.75 151.438 38.9518 151.438 37.0361V27.2982C151.438 24.8238 151.039 23.0678 150.162 21.9503C149.205 20.753 147.769 20.1145 145.935 20.1145C144.181 20.1145 142.586 20.753 141.549 21.9503C140.592 23.0678 139.954 24.8238 139.954 27.2184V36.9563C139.954 38.9518 139.157 39.6702 137.163 39.6702H134.372C132.458 39.6702 131.581 38.9518 131.581 36.9563V14.6069C131.581 13.3298 132.219 12.7711 133.176 12.7711C134.611 12.7711 136.605 13.9684 138.12 16.2831C140.353 13.6491 143.782 12.2922 147.131 12.2922C151.198 12.2922 154.468 13.7289 156.621 16.1235C158.774 18.5979 159.811 21.7907 159.811 27.0587ZM116.27 4.5497C116.27 1.99548 118.343 0 121.054 0C123.606 0 125.839 1.99548 125.839 4.5497C125.839 7.0241 123.606 9.0994 121.054 9.0994C118.343 9.0994 116.27 7.0241 116.27 4.5497ZM116.828 37.0361V16.0437C116.828 14.128 117.546 13.3298 119.619 13.3298H122.41C124.483 13.3298 125.201 14.128 125.201 16.0437V37.0361C125.201 38.9518 124.483 39.75 122.41 39.75H119.619C117.546 39.75 116.828 38.9518 116.828 37.0361ZM102.075 37.0361V10.6958C102.075 4.07078 105.823 0.319277 108.853 0.319277C109.81 0.319277 110.448 0.957831 110.448 2.15512V36.9563C110.448 38.9518 109.651 39.6702 107.657 39.6702H104.866C102.952 39.75 102.075 39.0316 102.075 37.0361ZM67.6246 26.5C67.6246 18.119 74.0042 12.2123 82.4573 12.2123C90.9104 12.2123 97.29 18.119 97.29 26.5C97.29 34.7214 90.9104 40.7876 82.4573 40.7876C74.0042 40.7876 67.6246 34.8012 67.6246 26.5ZM88.837 26.5C88.837 22.5889 86.3649 19.7154 82.4573 19.7154C78.5498 19.7154 76.0776 22.5889 76.0776 26.5C76.0776 30.4111 78.5498 33.2846 82.4573 33.2846C86.3649 33.2846 88.837 30.491 88.837 26.5ZM63.3183 16.0437V38.3931C63.3183 39.6702 62.6803 40.2289 61.7234 40.2289C60.2879 40.2289 58.2943 39.0316 56.8589 36.7967C54.7855 39.2711 51.5956 40.7078 48.0071 40.7078C44.4185 40.7078 41.5476 39.4307 39.3945 37.5151C36.9224 35.1205 35.5667 31.4488 35.5667 26.1807V16.0437C35.5667 14.128 36.2844 13.3298 38.3578 13.3298H41.1489C43.2223 13.3298 43.94 14.128 43.94 16.0437V25.4623C43.94 28.6551 44.4982 30.3313 45.5349 31.4488C46.4121 32.4066 47.6881 32.8855 49.283 32.8855C50.8779 32.8855 52.3931 32.247 53.2703 31.2093C54.307 30.0919 54.8652 28.3358 54.8652 25.622V16.0437C54.8652 14.0482 55.6627 13.3298 57.6563 13.3298H60.4474C62.4411 13.25 63.3183 14.0482 63.3183 16.0437ZM29.825 2.15512V38.3931C29.825 39.6702 29.187 40.2289 28.2301 40.2289C26.7946 40.2289 24.801 39.0316 23.3656 36.8765C21.6111 38.9518 18.0226 40.7876 13.8758 40.7876C5.58222 40.7876 0 34.7214 0 26.5C0 18.4383 5.66196 12.2123 13.8758 12.2123C16.9061 12.2123 19.5378 13.1702 21.5314 14.5271V10.6958C21.5314 4.07078 25.2795 0.319277 28.3098 0.319277C29.2668 0.319277 29.825 0.957831 29.825 2.15512ZM21.5314 26.5C21.5314 22.4292 18.6606 19.7154 15.072 19.7154C11.4037 19.7154 8.53282 22.4292 8.53282 26.5C8.53282 30.5708 11.4037 33.2846 15.072 33.2846C18.6606 33.2846 21.5314 30.6506 21.5314 26.5Z" fill="#58CC02"/>
</g>
<path d="M5.21591 70.1811C4.2661 70.1811 3.4491 69.9799 2.76491 69.5774C2.08475 69.1709 1.56155 68.6075 1.19531 67.8871C0.833097 67.1667 0.651989 66.3376 0.651989 65.3999C0.651989 64.45 0.835109 63.617 1.20135 62.9006C1.57161 62.1802 2.09683 61.6187 2.77699 61.2163C3.45715 60.8098 4.2661 60.6065 5.20384 60.6065C6.01278 60.6065 6.72112 60.7534 7.32884 61.0472C7.93655 61.341 8.4175 61.7536 8.77166 62.2848C9.12583 62.8161 9.32102 63.4399 9.35724 64.1562H6.9304C6.86198 63.6934 6.68087 63.3211 6.38707 63.0394C6.0973 62.7537 5.71697 62.6108 5.24609 62.6108C4.84766 62.6108 4.49953 62.7195 4.2017 62.9368C3.90791 63.1501 3.6785 63.462 3.51349 63.8725C3.34848 64.283 3.26598 64.7801 3.26598 65.3636C3.26598 65.9553 3.34647 66.4583 3.50746 66.8729C3.67247 67.2874 3.90388 67.6033 4.2017 67.8207C4.49953 68.038 4.84766 68.1467 5.24609 68.1467C5.53989 68.1467 5.8035 68.0863 6.03693 67.9656C6.27438 67.8448 6.46958 67.6697 6.62251 67.4403C6.77947 67.2069 6.8821 66.9272 6.9304 66.6012H9.35724C9.317 67.3095 9.12382 67.9334 8.7777 68.4727C8.43561 69.0079 7.96271 69.4265 7.35902 69.7283C6.75533 70.0302 6.04096 70.1811 5.21591 70.1811ZM13.5756 64.6392V70H11.0038V57.6364H13.5031V62.3633H13.6118C13.8211 61.8159 14.1591 61.3873 14.626 61.0774C15.0928 60.7635 15.6784 60.6065 16.3827 60.6065C17.0267 60.6065 17.5881 60.7474 18.067 61.0291C18.55 61.3068 18.9243 61.7073 19.1899 62.2305C19.4595 62.7496 19.5924 63.3714 19.5883 64.0959V70H17.0166V64.5547C17.0206 63.9832 16.8757 63.5385 16.5819 63.2205C16.2922 62.9026 15.8857 62.7436 15.3625 62.7436C15.0123 62.7436 14.7024 62.8181 14.4328 62.967C14.1672 63.1159 13.9579 63.3332 13.805 63.619C13.656 63.9007 13.5796 64.2408 13.5756 64.6392ZM24.2564 70.1751C23.6648 70.1751 23.1375 70.0724 22.6747 69.8672C22.2119 69.6579 21.8456 69.35 21.576 68.9435C21.3104 68.533 21.1776 68.0219 21.1776 67.4102C21.1776 66.895 21.2721 66.4624 21.4613 66.1122C21.6504 65.7621 21.908 65.4804 22.234 65.267C22.56 65.0537 22.9303 64.8928 23.3448 64.7841C23.7634 64.6754 24.2021 64.599 24.6609 64.5547C25.2002 64.4983 25.6348 64.446 25.9648 64.3977C26.2949 64.3454 26.5343 64.2689 26.6832 64.1683C26.8321 64.0677 26.9066 63.9188 26.9066 63.7216V63.6854C26.9066 63.303 26.7859 63.0072 26.5444 62.7979C26.3069 62.5887 25.9689 62.484 25.5302 62.484C25.0674 62.484 24.6991 62.5866 24.4254 62.7919C24.1518 62.9931 23.9706 63.2467 23.8821 63.5526L21.5036 63.3594C21.6243 62.7959 21.8617 62.3089 22.2159 61.8984C22.5701 61.4839 23.0269 61.166 23.5863 60.9446C24.1497 60.7192 24.8017 60.6065 25.5423 60.6065C26.0574 60.6065 26.5504 60.6669 27.0213 60.7876C27.4962 60.9084 27.9168 61.0955 28.283 61.3491C28.6533 61.6026 28.9451 61.9286 29.1584 62.3271C29.3717 62.7215 29.4783 63.1944 29.4783 63.7457V70H27.0394V68.7141H26.967C26.8181 69.0039 26.6188 69.2595 26.3693 69.4808C26.1198 69.6982 25.82 69.8692 25.4698 69.994C25.1197 70.1147 24.7152 70.1751 24.2564 70.1751ZM24.9929 68.4002C25.3712 68.4002 25.7053 68.3258 25.995 68.1768C26.2848 68.0239 26.5122 67.8187 26.6772 67.5611C26.8422 67.3035 26.9247 67.0117 26.9247 66.6857V65.7017C26.8442 65.754 26.7335 65.8023 26.5927 65.8466C26.4558 65.8868 26.3009 65.9251 26.1278 65.9613C25.9548 65.9935 25.7817 66.0237 25.6087 66.0518C25.4356 66.076 25.2786 66.0981 25.1378 66.1183C24.8359 66.1625 24.5723 66.233 24.3469 66.3295C24.1216 66.4261 23.9465 66.5569 23.8217 66.7219C23.697 66.8829 23.6346 67.0842 23.6346 67.3256C23.6346 67.6758 23.7614 67.9434 24.0149 68.1286C24.2725 68.3097 24.5985 68.4002 24.9929 68.4002ZM34.0453 57.6364V70H31.4735V57.6364H34.0453ZM38.6771 57.6364V70H36.1054V57.6364H38.6771ZM44.9631 70.1811C44.0092 70.1811 43.1882 69.9879 42.5 69.6016C41.8158 69.2112 41.2886 68.6598 40.9183 67.9474C40.5481 67.2311 40.3629 66.3839 40.3629 65.4059C40.3629 64.4521 40.5481 63.6149 40.9183 62.8945C41.2886 62.1741 41.8098 61.6127 42.4819 61.2102C43.158 60.8078 43.9509 60.6065 44.8604 60.6065C45.4722 60.6065 46.0417 60.7051 46.5689 60.9023C47.1001 61.0955 47.563 61.3873 47.9574 61.7777C48.3558 62.1681 48.6657 62.6591 48.8871 63.2507C49.1084 63.8383 49.2191 64.5265 49.2191 65.3153V66.0217H41.3892V64.4279H46.7983C46.7983 64.0576 46.7178 63.7296 46.5568 63.4439C46.3958 63.1581 46.1725 62.9348 45.8867 62.7738C45.605 62.6088 45.277 62.5263 44.9027 62.5263C44.5123 62.5263 44.1662 62.6168 43.8643 62.7979C43.5665 62.975 43.3331 63.2145 43.1641 63.5163C42.995 63.8142 42.9085 64.1462 42.9045 64.5124V66.0277C42.9045 66.4865 42.989 66.8829 43.158 67.217C43.3311 67.551 43.5746 67.8086 43.8885 67.9897C44.2024 68.1708 44.5747 68.2614 45.0053 68.2614C45.2911 68.2614 45.5527 68.2211 45.7901 68.1406C46.0276 68.0601 46.2308 67.9394 46.3999 67.7784C46.5689 67.6174 46.6977 67.4202 46.7862 67.1868L49.1648 67.3438C49.044 67.9152 48.7965 68.4143 48.4222 68.8409C48.052 69.2635 47.573 69.5935 46.9854 69.831C46.4019 70.0644 45.7277 70.1811 44.9631 70.1811ZM53.4691 64.6392V70H50.8974V60.7273H53.3484V62.3633H53.457C53.6623 61.824 54.0064 61.3974 54.4893 61.0835C54.9723 60.7655 55.5579 60.6065 56.2461 60.6065C56.89 60.6065 57.4515 60.7474 57.9304 61.0291C58.4093 61.3108 58.7816 61.7133 59.0472 62.2365C59.3129 62.7557 59.4457 63.3755 59.4457 64.0959V70H56.8739V64.5547C56.878 63.9872 56.7331 63.5445 56.4393 63.2266C56.1455 62.9046 55.741 62.7436 55.2259 62.7436C54.8797 62.7436 54.5739 62.8181 54.3082 62.967C54.0466 63.1159 53.8414 63.3332 53.6925 63.619C53.5476 63.9007 53.4731 64.2408 53.4691 64.6392ZM65.6501 73.6705C64.817 73.6705 64.1027 73.5558 63.507 73.3263C62.9154 73.101 62.4445 72.7931 62.0944 72.4027C61.7442 72.0123 61.5168 71.5736 61.4122 71.0866L63.7907 70.7667C63.8632 70.9518 63.9779 71.1249 64.1349 71.2859C64.2918 71.4469 64.4991 71.5756 64.7567 71.6722C65.0183 71.7728 65.3362 71.8232 65.7105 71.8232C66.2699 71.8232 66.7307 71.6863 67.093 71.4126C67.4592 71.143 67.6423 70.6902 67.6423 70.0543V68.358H67.5336C67.421 68.6155 67.2519 68.859 67.0265 69.0884C66.8012 69.3178 66.5114 69.505 66.1572 69.6499C65.8031 69.7947 65.3805 69.8672 64.8895 69.8672C64.1932 69.8672 63.5593 69.7062 62.9878 69.3842C62.4204 69.0582 61.9676 68.5612 61.6295 67.8931C61.2955 67.221 61.1285 66.3718 61.1285 65.3455C61.1285 64.2951 61.2995 63.4177 61.6416 62.7134C61.9837 62.0091 62.4385 61.4819 63.0059 61.1317C63.5774 60.7816 64.2033 60.6065 64.8834 60.6065C65.4026 60.6065 65.8373 60.6951 66.1874 60.8722C66.5376 61.0452 66.8193 61.2625 67.0326 61.5241C67.2499 61.7817 67.4169 62.0353 67.5336 62.2848H67.6302V60.7273H70.1839V70.0906C70.1839 70.8794 69.9907 71.5394 69.6043 72.0707C69.218 72.6019 68.6827 73.0004 67.9985 73.266C67.3183 73.5356 66.5355 73.6705 65.6501 73.6705ZM65.7045 67.9354C66.119 67.9354 66.4691 67.8327 66.7549 67.6275C67.0447 67.4182 67.266 67.1204 67.4189 66.734C67.5759 66.3436 67.6544 65.8768 67.6544 65.3335C67.6544 64.7901 67.5779 64.3192 67.425 63.9208C67.272 63.5183 67.0507 63.2064 66.7609 62.9851C66.4711 62.7637 66.119 62.6531 65.7045 62.6531C65.2819 62.6531 64.9257 62.7678 64.6359 62.9972C64.3461 63.2225 64.1268 63.5365 63.9779 63.9389C63.829 64.3414 63.7545 64.8062 63.7545 65.3335C63.7545 65.8687 63.829 66.3316 63.9779 66.7219C64.1308 67.1083 64.3502 67.4081 64.6359 67.6214C64.9257 67.8307 65.2819 67.9354 65.7045 67.9354ZM76.4562 70.1811C75.5024 70.1811 74.6814 69.9879 73.9932 69.6016C73.309 69.2112 72.7818 68.6598 72.4115 67.9474C72.0412 67.2311 71.8561 66.3839 71.8561 65.4059C71.8561 64.4521 72.0412 63.6149 72.4115 62.8945C72.7818 62.1741 73.3029 61.6127 73.9751 61.2102C74.6512 60.8078 75.444 60.6065 76.3536 60.6065C76.9653 60.6065 77.5348 60.7051 78.0621 60.9023C78.5933 61.0955 79.0561 61.3873 79.4506 61.7777C79.849 62.1681 80.1589 62.6591 80.3802 63.2507C80.6016 63.8383 80.7123 64.5265 80.7123 65.3153V66.0217H72.8824V64.4279H78.2915C78.2915 64.0576 78.211 63.7296 78.05 63.4439C77.889 63.1581 77.6656 62.9348 77.3799 62.7738C77.0982 62.6088 76.7702 62.5263 76.3959 62.5263C76.0055 62.5263 75.6594 62.6168 75.3575 62.7979C75.0597 62.975 74.8263 63.2145 74.6572 63.5163C74.4882 63.8142 74.4017 64.1462 74.3976 64.5124V66.0277C74.3976 66.4865 74.4822 66.8829 74.6512 67.217C74.8242 67.551 75.0677 67.8086 75.3817 67.9897C75.6956 68.1708 76.0679 68.2614 76.4985 68.2614C76.7842 68.2614 77.0458 68.2211 77.2833 68.1406C77.5207 68.0601 77.724 67.9394 77.893 67.7784C78.0621 67.6174 78.1908 67.4202 78.2794 67.1868L80.6579 67.3438C80.5372 67.9152 80.2897 68.4143 79.9154 68.8409C79.5451 69.2635 79.0662 69.5935 78.4786 69.831C77.895 70.0644 77.2209 70.1811 76.4562 70.1811ZM82.3905 70V60.7273H84.8838V62.3452H84.9804C85.1494 61.7696 85.4331 61.335 85.8316 61.0412C86.23 60.7434 86.6888 60.5945 87.208 60.5945C87.3368 60.5945 87.4756 60.6025 87.6246 60.6186C87.7735 60.6347 87.9043 60.6568 88.017 60.685V62.967C87.8962 62.9308 87.7292 62.8986 87.5159 62.8704C87.3026 62.8422 87.1074 62.8281 86.9303 62.8281C86.552 62.8281 86.2139 62.9106 85.9161 63.0756C85.6223 63.2366 85.3889 63.462 85.2158 63.7518C85.0468 64.0415 84.9623 64.3756 84.9623 64.7539V70H82.3905Z" fill="#58CC02"/>
<defs>
<clipPath id="clip0_668_3085">
<rect width="226" height="53" fill="white"/>
</clipPath>
</defs>
</svg>
