<svg width="40" height="41" viewBox="0 0 40 41" fill="none" xmlns="http://www.w3.org/2000/svg">
<path d="M30.4619 7.23145H9.53796V31.9597H30.4619V7.23145Z" fill="#AA572A"/>
<path fill-rule="evenodd" clip-rule="evenodd" d="M2.88037 5.80455C2.88037 5.01665 3.5191 4.37793 4.30701 4.37793H8.11135C8.89926 4.37793 9.53798 5.01665 9.53798 5.80455V17.6932H30.4618V5.80455C30.4618 5.01665 31.1006 4.37793 31.8885 4.37793H35.6928C36.4807 4.37793 37.1195 5.01665 37.1195 5.80455V35.2883C37.1195 36.0762 36.4807 36.7149 35.6928 36.7149H4.30701C3.5191 36.7149 2.88037 36.0762 2.88037 35.2883V5.80455ZM9.53798 31.9594H30.4618V23.3997H9.53798V31.9594Z" fill="#FFC800"/>
<path d="M37.1195 27.1366L26.8227 36.715H4.93652L10.0486 31.9595H30.4619V23.3998H19.2504L25.3849 17.6933H30.4619V12.9705L37.1195 6.77734V27.1366Z" fill="#FBE56D"/>
<path d="M9.53798 17.6185L2.88037 23.8116V12.7322L9.53798 6.53906V17.6185Z" fill="#FBE56D"/>
<path d="M16.4295 13.6748H23.906C25.0858 13.6748 26.0422 14.6637 26.0422 15.8837V24.7197C26.0422 25.9396 25.0858 26.9286 23.906 26.9286H16.4295C15.2497 26.9286 14.2933 25.9396 14.2933 24.7197V15.8837C14.2933 14.6637 15.2497 13.6748 16.4295 13.6748Z" fill="#FFC800"/>
<path d="M22.7724 18.6441C22.7724 17.1191 21.5769 15.8828 20.1021 15.8828C18.6274 15.8828 17.432 17.1191 17.432 18.6441C17.432 19.5448 17.849 20.3448 18.4944 20.8488L17.8176 23.3126C17.7906 23.4107 17.777 23.5123 17.777 23.6143C17.777 24.2243 18.2551 24.7188 18.8451 24.7188H21.358C21.4568 24.7188 21.5549 24.7047 21.6499 24.6768C22.2173 24.5102 22.5466 23.8993 22.3855 23.3126L21.7089 20.8496C22.3549 20.3457 22.7724 19.5453 22.7724 18.6441Z" fill="#CD7900"/>
</svg>
