<svg width="43" height="47" viewBox="0 0 43 47" fill="none" xmlns="http://www.w3.org/2000/svg">
<path d="M33.0187 27.0578C36.7012 19.7812 33.7876 10.8972 26.5111 7.21465C19.2345 3.53214 10.3504 6.44569 6.66792 13.7222C2.98541 20.9988 5.89896 29.8829 13.1755 33.5654C20.4521 37.2479 29.3361 34.3343 33.0187 27.0578Z" fill="#84D8FF"/>
<path d="M34.815 27.9671C38.9852 19.727 35.7117 9.67277 27.5059 5.46186L27.42 5.41839C26.7585 5.08362 26.4936 4.27598 26.8284 3.61447C27.1631 2.95299 27.9707 2.68812 28.6322 3.02283L28.7521 3.08349C38.2561 7.97424 42.0445 19.6276 37.2105 29.1795C34.4596 34.6152 29.5066 38.2039 23.9852 39.4099V42.65H26.4216C27.0945 42.65 27.6399 43.1954 27.6399 43.8683C27.6399 44.5411 27.0945 45.0866 26.4216 45.0866H17.8936C17.2207 45.0866 16.6753 44.5411 16.6753 43.8683C16.6753 43.1954 17.2207 42.65 17.8936 42.65H20.3303V39.8527C17.2548 39.9324 14.1166 39.2824 11.1737 37.8179L11.0537 37.7577C10.3922 37.423 10.1273 36.6153 10.4621 35.9538C10.7968 35.2923 11.6045 35.0275 12.266 35.3622C20.5348 39.5469 30.6303 36.236 34.815 27.9671Z" fill="#FF9600"/>
<path fill-rule="evenodd" clip-rule="evenodd" d="M20.939 35.1177C18.3448 35.3132 15.6659 34.8256 13.1754 33.5651C11.9784 32.9594 10.8994 32.2128 9.9485 31.3558C9.8494 30.641 9.9605 29.8896 10.313 29.1978C11.2294 27.3993 13.4303 26.6842 15.2288 27.6006L19.5708 29.813C21.3693 30.7294 22.0844 32.9302 21.168 34.7288C21.0988 34.8647 21.0222 34.9944 20.939 35.1177ZM34.367 17.7194C34.9334 20.7874 34.536 24.059 33.0185 27.0575C32.112 28.8488 30.8902 30.3757 29.4548 31.6049L28.1899 30.9604C24.5928 29.1276 23.1626 24.7258 24.9954 21.1288C26.7507 17.6837 30.8625 16.2263 34.367 17.7194ZM23.321 6.03528C25.3883 7.11711 26.2043 9.66446 25.1424 11.7486C24.0733 13.8469 21.5056 14.6812 19.4073 13.6121L19.2654 13.5398C19.2119 14.6053 18.938 15.677 18.4223 16.6891C16.4641 20.5322 11.7613 22.0602 7.91819 20.1021C6.85295 19.5593 5.96557 18.8057 5.28101 17.9179C5.52338 16.4928 5.9808 15.0794 6.66777 13.722C9.8254 7.48269 16.8073 4.45118 23.321 6.03528Z" fill="#58CC02"/>
</svg>
